<?xml version="1.0" encoding="UTF-8" standalone="no"?>
<svg
   xmlns:dc="http://purl.org/dc/elements/1.1/"
   xmlns:cc="http://creativecommons.org/ns#"
   xmlns:rdf="http://www.w3.org/1999/02/22-rdf-syntax-ns#"
   xmlns:svg="http://www.w3.org/2000/svg"
   xmlns="http://www.w3.org/2000/svg"
   xmlns:sodipodi="http://sodipodi.sourceforge.net/DTD/sodipodi-0.dtd"
   xmlns:inkscape="http://www.inkscape.org/namespaces/inkscape"
   width="797.92188"
   height="124"
   viewBox="0 0 211.11682 32.808335"
   version="1.1"
   id="svg847"
   inkscape:version="1.0.2-2 (e86c870879, 2021-01-15)"
   sodipodi:docname="logo12.svg">
  <defs
     id="defs841">
    <style
       id="style6255">
        
            
            
            
        

        .svg-fill-primary {
            fill: #090D49;
        }

        .svg-fill-secondary {
            fill: #65CDAE;
        }

        .svg-fill-tertiary {
            fill: #E5E7EB;
        }

        .svg-stroke-primary {
            stroke: #090D49;
        }

        .svg-stroke-secondary {
            stroke: #65CDAE;
        }

        .svg-stroke-tertiary {
            stroke: #E5E7EB;
        }
    </style>
  </defs>
  <sodipodi:namedview
     id="base"
     pagecolor="#ffffff"
     bordercolor="#666666"
     borderopacity="1.0"
     inkscape:pageopacity="0.0"
     inkscape:pageshadow="2"
     inkscape:zoom="1.4"
     inkscape:cx="379.71342"
     inkscape:cy="152.65645"
     inkscape:document-units="px"
     inkscape:current-layer="layer1"
     inkscape:document-rotation="0"
     showgrid="false"
     units="px"
     inkscape:window-width="1920"
     inkscape:window-height="1017"
     inkscape:window-x="-8"
     inkscape:window-y="-8"
     inkscape:window-maximized="1"
     inkscape:snap-page="true" />
  <metadata
     id="metadata844">
    <rdf:RDF>
      <cc:Work
         rdf:about="">
        <dc:format>image/svg+xml</dc:format>
        <dc:type
           rdf:resource="http://purl.org/dc/dcmitype/StillImage" />
        <dc:title></dc:title>
      </cc:Work>
    </rdf:RDF>
  </metadata>
  <g
     inkscape:label="Layer 1"
     inkscape:groupmode="layer"
     id="layer1"
     transform="translate(-0.27026775,-13.334587)">
    <path
       id="path6366"
       style="font-weight:bold;font-size:31.6654px;line-height:1.25;font-family:Lemands;-inkscape-font-specification:'Lemands, Bold';stroke-width:0.997334;fill:#ffffff"
       d="m 63.021484,50.398438 c -34.240506,0 -61.9999996,27.759487 -61.9999996,62.000002 l 0.00195,0.11133 -0.00195,0.10937 c 0,34.12064 27.6036876,61.7793 61.6582036,61.7793 l 0.132812,-0.004 0.208984,0.004 c 34.240516,0 61.999996,-27.75949 61.999996,-62 0,-34.240522 -27.75948,-62.000002 -61.999996,-62.000002 z m -1.003906,8.589843 c 1.83521,0.01256 3.47163,1.188304 4.119141,2.208985 1.155269,1.81039 4.111778,0.656677 6.912109,3.955078 2.798268,3.296326 -0.660585,4.778642 -3.78125,3.439453 -3.131002,-1.339204 0.656632,3.320138 2.462891,4.638672 1.810401,1.31647 2.797764,-2.969161 3.457031,-3.957031 0.657199,-0.989923 3.123311,-0.493686 4.931641,-3.132813 1.812461,-2.637071 5.921794,-2.140889 8.269531,-1.851563 2.349796,0.291364 1.764883,-1.443475 0.285156,-2.863281 -1.095337,-1.049858 1.14614,-0.13128 3.783203,1.15625 17.014859,10.070873 28.429689,28.60622 28.429689,49.816409 0,4.9476 -0.62347,9.75022 -1.78906,14.33203 -0.5394,-0.37202 -1.96507,1.16468 -2.31641,-0.87305 -0.44019,-2.5296 -3.29259,-4.28711 -4.82813,-3.07812 -1.53553,1.209 -5.92362,4.72489 -6.14062,6.92382 -0.22114,2.19687 -2.08674,4.83484 -2.96094,2.97071 -0.8804,-1.86827 -3.509808,-7.69482 -3.402341,-9.23242 0.107452,-1.5376 -1.210271,0.54992 -3.177735,-2.52735 -1.975729,-3.07726 -5.37472,-0.44286 -8.117187,-1.98047 -2.742471,-1.53965 -5.813956,-3.62601 -7.351563,-4.2832 -1.531396,-0.66133 2.74128,6.15177 3.291016,5.27344 0.5518,-0.87833 2.743073,0.66015 3.402344,0.66015 0.65927,0 2.41174,1.53668 1.316406,2.9668 -1.095337,1.43014 -10.855887,7.37008 -11.84375,5.82422 -0.992005,-1.54587 -6.799121,-13.51882 -7.789062,-12.78516 -0.987863,0.73367 6.14463,13.22339 7.351562,13.99219 1.202801,0.77087 4.825596,0.11057 6.578125,-0.6582 1.756668,-0.7688 -3.619724,8.57241 -5.919922,9.67187 -2.302265,1.09741 -4.165376,4.50537 -3.181641,6.04297 0.987863,1.5376 1.096754,7.36391 -0.984374,8.13477 -2.087335,0.76673 -2.854465,1.97612 -2.197266,3.40625 0.655136,1.42599 -1.533618,3.84119 -2.521484,5.38086 -0.989931,1.5376 -4.825583,4.72507 -5.15625,5.60547 -0.326552,0.8804 -5.041891,0.66015 -6.910157,0.66015 -1.862067,0 -0.439023,-2.30941 -0.660156,-4.28515 -0.214942,-1.97987 -1.859375,-3.84807 -1.859375,-4.83594 0,-0.98994 -0.551744,-3.29909 -1.316406,-4.39649 -0.766734,-1.10152 -0.989539,-3.18759 -0.220703,-4.39453 0.770872,-1.21106 1.316568,-4.72401 -0.214844,-6.26367 -1.537599,-1.5376 -3.29494,-4.17829 -2.085938,-6.26562 1.206932,-2.08734 -1.31719,-1.86543 -3.40039,-2.85743 -2.085268,-0.98993 -6.361953,0.33146 -8.554688,0.66211 -2.194796,0.3286 -4.385651,-0.55081 -5.044922,-1.65234 -0.657195,-1.0974 -2.083788,-3.84453 -3.544921,-4.50586 -1.456997,-0.6572 -0.622332,-3.51393 0.253906,-4.61133 0.880398,-1.0974 -0.876265,-3.18785 0,-4.07031 0.880398,-0.87833 1.427041,-4.0633 3.18164,-4.75977 1.756659,-0.69439 1.424782,-1.17111 1.478516,-2.82031 0.05582,-1.6492 1.974249,-1.649 2.300781,-2.52734 0.330671,-0.8804 1.317011,-1.31836 3.296875,-1.31836 1.973666,0 5.314918,-1.15662 6.90625,-1.54102 1.591336,-0.38439 4.334418,-0.93224 4.113282,0.60742 -0.219062,1.53761 -0.164544,3.29297 0.875,3.29297 1.043667,0 2.470168,0.60579 4.115234,1.63086 1.645066,1.023 1.698785,0.18651 1.919922,-0.96875 0.22114,-1.15526 2.52154,-0.7147 4.902344,0.38477 2.380796,1.09947 5.62855,0.32819 6.666015,0.2207 1.043664,-0.11369 1.483851,-3.24344 1.208985,-4.28711 -0.276926,-1.04367 -1.921291,0.49519 -2.962891,-0.16406 -1.041596,-0.6572 -2.468276,0.1647 -3.507813,-0.77149 -1.043659,-0.93206 -1.208991,-3.1318 0,-3.18554 1.204865,-0.0558 1.808595,-0.43919 2.519532,-1.26172 0.71506,-0.8246 3.401755,-1.31863 4.443359,-0.49609 1.039529,0.82459 2.579878,1.37358 3.507813,0.43945 0.932061,-0.93207 -1.859193,-2.74424 -2.466797,-3.24024 -0.603466,-0.49393 -0.109502,-2.087886 -0.710938,-2.087886 -0.605537,0 -1.100191,0.274064 -0.769531,1.044922 0.328592,0.768794 -1.75516,2.139784 -2.087891,1.373044 -0.326551,-0.77086 -0.872781,-2.251951 -1.695312,-2.251951 -0.820464,0 -1.918809,3.736381 -1.97461,4.339841 -0.05579,0.60553 -1.481796,1.59375 -2.630859,1.59375 -1.149071,0 -1.148273,1.32025 -0.546875,1.92578 0.603466,0.60347 0.161747,3.02169 -0.933594,3.16016 -1.097397,0.14052 -1.481263,-0.2474 -1.644531,-1.18359 -0.163276,-0.93207 -1.260605,-0.82399 -1.316406,-2.74805 -0.05582,-1.92407 -1.262567,-2.85593 -2.029297,-3.73633 -0.766738,-0.88039 -2.743036,-3.461904 -3.509766,-2.306639 -0.766734,1.155269 2.74383,3.627959 3.673828,4.285159 0.936197,0.65927 0.769334,2.0873 0.275391,2.41797 -0.493928,0.33067 -1.424991,3.02323 -1.972656,3.24023 -0.551796,0.21906 -1.074219,-0.81836 -1.074219,-0.81836 -0.822539,-0.32859 1.147849,-1.31857 1.478516,-1.8125 0.326551,-0.49393 -3.452769,-3.95538 -4.134766,-4.94531 -0.682001,-0.98993 -3.595754,0.82323 -4.910156,0.16601 -1.316463,-0.65719 -3.291925,2.47074 -3.453125,4.28321 -0.167396,1.81453 -2.307585,2.30664 -4.28125,2.30664 -1.971605,0 -3.290241,-1.48098 -2.628906,-2.96485 0.657194,-1.48386 -0.328986,-3.95575 0.824218,-4.12109 1.151131,-0.16327 4.436433,-3e-5 5.095703,-1.812499 0.657196,-1.812461 -3.126443,-3.462416 -1.642578,-3.791016 1.477667,-0.330633 3.782669,-2.634473 5.427735,-3.955078 1.640934,-1.318534 1.807375,-2.966298 3.287109,-3.082031 1.483861,-0.113689 -0.326251,-2.853251 0.990234,-3.675782 1.31853,-0.824598 1.644946,2.966797 2.632813,2.966797 0.987866,0 2.956386,-0.330469 4.603516,0.494141 1.647136,0.824598 2.139561,-0.823551 2.798828,-2.96875 0.657199,-2.141065 2.301779,-3.29623 5.589843,-4.94336 3.290132,-1.6492 -3.779126,0.492947 -5.097656,-1.15625 -1.316466,-1.649196 0.493761,-5.275349 1.318359,-7.835937 0.822535,-2.562678 -2.632961,2.560081 -4.443359,5.199219 -1.812465,2.637067 0.493556,3.789097 0.326172,5.601562 -0.163276,1.814533 -3.121094,3.957031 -3.121094,3.957032 -1.316466,0.165316 -1.153351,-2.471806 -1.810547,-3.625 -0.659266,-1.153206 -1.810696,-0.660331 -3.621093,0.658203 -1.810398,1.318529 -1.974926,-3.130777 -2.466797,-4.945313 -0.489797,-1.81039 2.961656,-4.119829 4.583984,-5.351562 1.620265,-1.235872 4.29617,-7.174314 7.259766,-11.78711 1.296574,-2.019001 2.844099,-2.712891 4.271484,-2.703125 z m -31.169922,9.611328 c 1.202756,0.219857 1.80842,4.451867 0.576172,4.296875 -1.31647,-0.165316 -2.795934,2.637992 -4.697266,2.472657 -1.903399,-0.165317 -1.060218,-1.481196 -3.199218,-3.458985 -0.458797,-0.425741 -0.647535,-0.811572 -0.664063,-1.148437 0.45673,-0.440213 0.911502,-0.881022 1.384766,-1.304688 0.739865,-0.196346 1.618051,-0.167544 2.242187,0.144531 1.647129,0.822532 2.960313,-0.669904 4.109375,-0.990234 0.08512,-0.02351 0.167864,-0.02638 0.248047,-0.01172 z M 726.77734,70.1875 c 0,12.446744 -5.86512,19.148156 -14.12304,20.943359 l -0.83789,5.865235 h 8.01953 v 38.775386 c 0,15.07972 6.94018,19.86719 18.9082,19.86719 5.3856,0 11.36914,-1.67578 11.36914,-1.67578 l 1.19727,-15.19922 c 0,0 -3.82861,7.90039 -10.65039,7.90039 -4.06912,0 -6.34375,-2.87408 -6.34375,-9.57617 V 97.115234 c 6.94144,0 11.13082,0.718597 14.60156,3.351566 V 88.378906 H 734.31641 V 70.1875 Z m -339.86132,0.71875 c 3.11168,4.188809 3.35156,11.368939 3.35156,20.943359 v 0.478516 c -2.75263,-2.752645 -6.34471,-4.90625 -10.89258,-4.90625 -10.17282,0 -17.95117,9.215677 -17.95117,34.587895 0,25.25253 7.77835,34.46679 17.95117,34.46679 4.54787,0 8.13995,-2.1536 10.89258,-4.90625 v 3.23047 h 17.95117 c -3.11168,-4.18881 -3.35156,-11.84833 -3.35156,-21.66211 V 70.90625 Z m 194.40429,0 c 3.11169,4.188809 3.35157,11.368939 3.35157,20.943359 v 0.478516 c -2.75267,-2.752645 -6.34276,-4.90625 -10.89063,-4.90625 -10.17279,0 -17.95312,9.215677 -17.95313,34.587895 0,25.25253 7.78034,34.46679 17.95313,34.46679 4.54787,0 8.13796,-2.1536 10.89063,-4.90625 v 3.23047 h 17.95117 c -3.11169,-4.18881 -3.34961,-11.84833 -3.34961,-21.66211 V 70.90625 Z m -414.375,0.119141 c 3.82977,4.188808 5.26447,11.848328 6.82031,21.662109 l 9.2168,62.11328 h 21.30274 l 5.5039,-50.38476 6.46289,50.38476 h 21.1836 l 8.13867,-62.11328 c 1.1968,-9.813781 2.51257,-17.473301 6.22266,-21.662109 h -17.47266 c 2.27392,3.470728 2.15363,9.574837 1.43555,17.234375 l -6.10352,53.376954 -7.41992,-48.94922 c -1.55584,-9.813781 -2.39416,-17.473301 0.11914,-21.662109 h -20.82422 c 1.55584,4.547848 1.91622,9.335836 1.4375,14.123047 l -6.46289,56.488282 -7.41992,-48.94922 c -1.43617,-9.813781 -2.39413,-17.473301 0.11914,-21.662109 z m 170.1836,0 c 3.23136,4.188808 3.4707,11.848328 3.4707,21.662109 v 40.45117 c 0,9.81378 -0.23933,17.4733 -3.4707,21.66211 h 21.42382 c -3.23136,-4.18881 -3.4707,-11.84833 -3.4707,-21.66211 V 71.025391 Z m 85.85547,0 c 3.23134,4.188808 4.30859,11.848328 4.30859,21.662109 v 40.45117 c 0,9.81378 -1.07725,17.4733 -4.30859,21.66211 h 19.62695 v -0.11914 h 20.94531 l 0.83789,-13.16406 c -3.23138,2.51328 -9.09631,3.34961 -16.75586,3.34961 h -5.02734 V 92.6875 c 0,-9.813781 1.07721,-17.473301 4.30859,-21.662109 z m 194.40429,0 c 3.23138,4.188808 4.3086,11.848328 4.3086,21.662109 v 40.45117 c 0,9.81378 -1.07722,17.4733 -4.3086,21.66211 h 20.82422 c 16.75525,0 27.88672,-11.24857 27.88672,-41.88672 0,-30.63814 -11.13147,-41.888669 -27.88672,-41.888669 z m 19.62891,9.814453 h 1.19531 c 3.82976,0 6.46369,2.631375 8.01953,5.982422 2.39361,4.547848 4.06836,12.567929 4.06836,26.091794 0,13.52387 -1.67475,21.542 -4.06836,26.08985 -1.55584,3.35104 -4.18977,5.98437 -8.01953,5.98437 h -1.19531 z M 39.351562,82.285156 c 1.812465,0.111572 1.258592,4.232141 1.919922,5.552735 0.657196,1.316473 2.522758,2.911369 2.357422,4.0625 -0.165316,1.155269 -0.51604,1.815038 -1.859375,1.484375 -1.349529,-0.330671 -3.509273,1.70276 -4.335937,1.318359 -0.824602,-0.386464 1.426796,-1.429944 0.875,-1.994141 -0.545597,-0.5642 0.551101,-2.786045 1.042968,-3.445312 0.495999,-0.659271 -1.373434,-0.44011 -1.259765,0.496094 0.109493,0.932065 -0.7141,2.361693 -1.865235,2.746093 -1.151129,0.384401 -2.463728,0.272187 -1.808593,-0.771484 0.655128,-1.043664 0.05449,-1.976859 -0.439453,-2.966797 -0.491863,-0.98993 2.739056,-1.593796 3.40039,-2.197266 0.657198,-0.603465 -1.037998,-0.989801 -0.986328,-1.921874 0.05582,-0.936197 0.438729,-1.759614 1.091797,-1.869141 0.659266,-0.109531 1.276122,-0.531335 1.867187,-0.494141 z m 287.724608,5.25586 c -6.58241,0 -10.17301,6.22402 -12.08789,13.285154 V 89.216797 h -17.95117 c 3.23137,4.188809 3.4707,11.848333 3.4707,21.662113 v 22.25976 c 0,9.81378 -0.23933,17.4733 -3.4707,21.66211 h 21.42187 c -3.23136,-4.18881 -3.4707,-11.84833 -3.4707,-21.66211 v -11.48828 c 0,-12.0877 2.51262,-20.34529 8.37695,-21.30273 7.06114,-1.077124 11.25,6.34179 11.25,6.34179 l -0.83789,-16.753903 c 0,0 -2.99108,-2.394531 -6.70117,-2.394531 z m -56.25,0.11914 c -12.80579,0 -23.33789,10.174198 -23.33789,34.349614 0,24.29509 10.5321,34.46679 23.33789,34.46679 12.80579,0 23.33789,-10.1717 23.33789,-34.46679 0,-24.175416 -10.5321,-34.349614 -23.33789,-34.349614 z m 214.03321,0 c -13.04516,0 -22.38086,8.977268 -22.38086,33.511724 0,24.65413 10.77065,35.30468 25.25195,35.30468 8.97604,0 13.4043,-3.4707 13.4043,-3.4707 l 1.3164,-16.15625 c 0,0 -5.02679,10.65234 -14.24219,10.65234 -5.98401,0 -9.3341,-5.02778 -10.17187,-18.79101 h 26.08984 v -3.58985 c 0,-31.23654 -8.37668,-37.460934 -19.26757,-37.460934 z m 47.15234,0 c -10.05313,0 -16.75391,4.429688 -16.75391,4.429688 l -1.3164,15.199216 c 0,0 6.22334,-10.652341 16.03711,-10.652341 3.82975,0 6.22265,2.154734 6.22265,6.822261 v 3.83008 c -17.47332,0.5984 -28.00586,10.53221 -28.00586,27.64649 0,15.07971 8.01994,21.54101 16.15821,21.54101 5.14624,0 9.09502,-2.75159 11.84765,-5.86328 v 4.1875 h 17.95313 c -3.11169,-4.18881 -3.47071,-11.84833 -3.47071,-21.66211 v -21.78125 c 0,-13.882906 -2.87409,-23.697264 -18.67187,-23.697264 z m 161.97266,0 c -10.05313,0 -16.75586,4.429688 -16.75586,4.429688 l -1.31641,15.199216 c 0,0 6.22334,-10.652341 16.03711,-10.652341 3.82976,0 6.22461,2.154734 6.22461,6.822261 v 3.83008 c -17.47332,0.5984 -28.00586,10.53221 -28.00586,27.64649 0,15.07971 8.01798,21.54101 16.15625,21.54101 5.14624,0 9.09698,-2.75159 11.84961,-5.86328 v 4.1875 H 716.125 c -3.11168,-4.18881 -3.4707,-11.84833 -3.4707,-21.66211 v -21.78125 c 0,-13.882906 -2.8721,-23.697264 -18.66992,-23.697264 z m 82.81835,0 c -10.05312,0 -16.75585,4.429688 -16.75585,4.429688 l -1.31641,15.199216 c 0,0 6.22334,-10.652341 16.03711,-10.652341 3.82976,0 6.22461,2.154734 6.22461,6.822261 v 3.83008 c -17.47333,0.5984 -28.00586,10.53221 -28.00586,27.64649 0,15.07971 8.01798,21.54101 16.15625,21.54101 5.14624,0 9.09698,-2.75159 11.84961,-5.86328 v 4.1875 h 17.95117 c -3.11169,-4.18881 -3.4707,-11.84833 -3.4707,-21.66211 v -21.78125 c 0,-13.882906 -2.87214,-23.697264 -18.66993,-23.697264 z m -392.63867,7.660156 c 4.42817,0 6.10352,7.061068 6.10352,10.412108 v 32.4336 c 0,3.35105 -1.67535,10.4121 -6.10352,10.4121 -4.66752,0 -7.42187,-9.3344 -7.42187,-26.56835 0,-17.35364 2.75435,-26.689457 7.42187,-26.689458 z m 194.4043,0 c 4.42817,0 6.10352,7.061068 6.10352,10.412108 v 32.4336 c 0,3.35105 -1.67535,10.4121 -6.10352,10.4121 -4.66753,0 -7.41992,-9.3344 -7.41992,-26.56835 0,-17.35364 2.75239,-26.689457 7.41992,-26.689458 z m -307.74219,1.316407 c 3.59041,0 8.01953,2.274755 8.01953,25.373051 0,23.21796 -4.42912,25.49218 -8.01953,25.49218 -3.59041,0 -8.01758,-2.27422 -8.01758,-25.49218 0,-23.098296 4.42717,-25.373051 8.01758,-25.373051 z m 212.95508,0 c 4.54787,0 5.3862,10.172391 5.50586,13.523441 0.11981,2.75264 0.23956,5.74465 0.35937,9.0957 h -11.8496 c 0.11981,-4.06913 0.23904,-7.65892 0.47851,-10.53125 0.23924,-3.35105 0.95803,-12.087891 5.50586,-12.087891 z m 52.41992,16.994141 v 19.74805 c 0,5.98401 -1.6755,15.08007 -6.9414,15.08007 -2.99203,0 -5.74415,-3.35107 -5.74415,-14.7207 0,-13.76323 4.66698,-19.50902 12.68555,-20.10742 z m 161.97266,0 v 19.74805 c 0,5.98401 -1.67547,15.08007 -6.94141,15.08007 -2.99202,0 -5.74609,-3.35107 -5.74609,-14.7207 0,-13.76323 4.66893,-19.50902 12.6875,-20.10742 z m 82.81836,0 v 19.74805 c 0,5.98401 -1.67551,15.08007 -6.94141,15.08007 -2.99202,0 -5.74609,-3.35107 -5.74609,-14.7207 0,-13.76323 4.66893,-19.50902 12.6875,-20.10742 z M 80.847656,149.14648 c 2.524149,0.18675 -0.185033,7.99024 -1.246094,10.22657 -1.0974,2.30846 -1.54032,2.19564 -2.583984,0.76757 -1.047802,-1.42599 -0.708869,-3.73658 0,-4.83398 0.706806,-1.10153 -0.600099,-2.41739 0.9375,-2.74805 1.535535,-0.32859 1.239887,-3.25124 2.632813,-3.40625 0.09255,-0.0103 0.178341,-0.0119 0.259765,-0.006 z"
       transform="scale(0.26458334)" />
  </g>
</svg>
