<?xml version="1.0" encoding="UTF-8" standalone="no"?>
<svg
   xmlns:dc="http://purl.org/dc/elements/1.1/"
   xmlns:cc="http://creativecommons.org/ns#"
   xmlns:rdf="http://www.w3.org/1999/02/22-rdf-syntax-ns#"
   xmlns:svg="http://www.w3.org/2000/svg"
   xmlns="http://www.w3.org/2000/svg"
   xmlns:sodipodi="http://sodipodi.sourceforge.net/DTD/sodipodi-0.dtd"
   xmlns:inkscape="http://www.inkscape.org/namespaces/inkscape"
   width="792.10547"
   height="116.16797"
   viewBox="0 0 209.5779 30.73611"
   version="1.1"
   id="svg847"
   inkscape:version="1.0.2-2 (e86c870879, 2021-01-15)"
   sodipodi:docname="logo11.svg">
  <defs
     id="defs841">
    <style
       id="style6255">
        
            
            
            
        

        .svg-fill-primary {
            fill: #090D49;
        }

        .svg-fill-secondary {
            fill: #65CDAE;
        }

        .svg-fill-tertiary {
            fill: #E5E7EB;
        }

        .svg-stroke-primary {
            stroke: #090D49;
        }

        .svg-stroke-secondary {
            stroke: #65CDAE;
        }

        .svg-stroke-tertiary {
            stroke: #E5E7EB;
        }
    </style>
  </defs>
  <sodipodi:namedview
     id="base"
     pagecolor="#ffffff"
     bordercolor="#666666"
     borderopacity="1.0"
     inkscape:pageopacity="0.0"
     inkscape:pageshadow="2"
     inkscape:zoom="1.4"
     inkscape:cx="380.49082"
     inkscape:cy="91.849015"
     inkscape:document-units="px"
     inkscape:current-layer="layer1"
     inkscape:document-rotation="0"
     showgrid="false"
     units="px"
     inkscape:window-width="1920"
     inkscape:window-height="1017"
     inkscape:window-x="-8"
     inkscape:window-y="-8"
     inkscape:window-maximized="1"
     inkscape:snap-page="true" />
  <metadata
     id="metadata844">
    <rdf:RDF>
      <cc:Work
         rdf:about="">
        <dc:format>image/svg+xml</dc:format>
        <dc:type
           rdf:resource="http://purl.org/dc/dcmitype/StillImage" />
        <dc:title></dc:title>
      </cc:Work>
    </rdf:RDF>
  </metadata>
  <g
     inkscape:label="Layer 1"
     inkscape:groupmode="layer"
     id="layer1"
     transform="translate(-0.52916668,-14.421342)">
    <path
       id="path6304"
       style="font-weight:bold;font-size:31.6654px;line-height:1.25;font-family:Lemands;-inkscape-font-specification:'Lemands, Bold';text-align:end;text-anchor:end;stroke-width:0.997334;fill:#ffffff"
       d="M 63.734375,54.505859 V 80.783203 H 86.742188 C 85.456165,77.108652 83.970147,73.716436 82.306641,70.695312 77.144309,61.323449 70.591458,55.672135 63.734375,54.505859 Z m -6.507813,0.257813 c -6.417119,1.591914 -12.509436,7.109074 -17.367187,15.93164 -1.663506,3.021124 -3.149518,6.41334 -4.435547,10.087891 H 57.226562 Z M 42.230469,56.523438 C 29.220502,60.777224 18.235871,69.451706 11.03125,80.785156 h 17.513672 c 1.545054,-4.809592 3.425859,-9.258488 5.611328,-13.228515 2.333853,-4.236862 5.050491,-7.969773 8.074219,-11.03125 z m 38.283203,0.603515 c 2.792035,2.945628 5.312582,6.466169 7.49414,10.429688 2.186767,3.970027 4.064314,8.416974 5.605469,13.226562 H 109.92969 C 103.05699,69.971717 92.746551,61.569478 80.513672,57.126953 Z M 721.93945,70.1875 c 0,12.446744 -5.86512,19.148156 -14.12304,20.943359 l -0.83789,5.865235 h 8.01953 v 38.775386 c 0,15.07972 6.94017,19.86719 18.9082,19.86719 5.38564,0 11.37109,-1.67578 11.37109,-1.67578 l 1.19532,-15.19922 c 0,0 -3.82861,7.90039 -10.65039,7.90039 -4.06912,0 -6.34375,-2.87408 -6.34375,-9.57617 V 97.115234 c 6.94148,0 11.13086,0.718597 14.60156,3.351566 V 88.378906 H 729.47852 V 70.1875 Z m -339.86133,0.71875 c 3.11169,4.188809 3.35157,11.368939 3.35157,20.943359 v 0.478516 c -2.75267,-2.752645 -6.34278,-4.90625 -10.89063,-4.90625 -10.17282,0 -17.95312,9.215677 -17.95312,34.587895 0,25.25253 7.7803,34.46679 17.95312,34.46679 4.54785,0 8.13796,-2.1536 10.89063,-4.90625 v 3.23047 h 17.95117 c -3.11169,-4.18881 -3.35156,-11.84833 -3.35156,-21.66211 V 70.90625 Z m 194.4043,0 c 3.11169,4.188809 3.35156,11.368939 3.35156,20.943359 v 0.478516 c -2.75263,-2.752645 -6.34279,-4.90625 -10.89062,-4.90625 -10.17283,0 -17.95313,9.215677 -17.95313,34.587895 0,25.25253 7.7803,34.46679 17.95313,34.46679 4.54783,0 8.13799,-2.1536 10.89062,-4.90625 v 3.23047 h 17.95118 c -3.11169,-4.18881 -3.34961,-11.84833 -3.34961,-21.66211 V 70.90625 Z m -414.375,0.119141 c 3.82977,4.188808 5.26447,11.848328 6.82031,21.662109 l 9.2168,62.11328 h 21.30274 l 5.50585,-50.38476 6.4629,50.38476 h 21.18164 l 8.13867,-62.11328 c 1.1968,-9.813781 2.51452,-17.473301 6.22461,-21.662109 h -17.47461 c 2.27392,3.470728 2.15558,9.574837 1.4375,17.234375 l -6.10547,53.376954 -7.41992,-48.94922 c -1.55584,-9.813781 -2.39217,-17.473301 0.12109,-21.662109 h -20.82422 c 1.55584,4.547848 1.91427,9.335836 1.43555,14.123047 l -6.46289,56.488282 -7.41992,-48.94922 c -1.43616,-9.813781 -2.39417,-17.473301 0.11914,-21.662109 z m 170.1836,0 c 3.23136,4.188808 3.4707,11.848328 3.4707,21.662109 v 40.45117 c 0,9.81378 -0.23933,17.4733 -3.4707,21.66211 h 21.42382 c -3.23136,-4.18881 -3.4707,-11.84833 -3.4707,-21.66211 V 71.025391 Z m 85.85546,0 c 3.23139,4.188808 4.3086,11.848328 4.3086,21.662109 v 40.45117 c 0,9.81378 -1.07721,17.4733 -4.3086,21.66211 h 19.62696 v -0.11914 h 20.94531 l 0.83789,-13.16406 c -3.23138,2.51328 -9.09631,3.34961 -16.75586,3.34961 h -5.02734 V 92.6875 c 0,-9.813781 1.07725,-17.473301 4.30859,-21.662109 z m 194.4043,0 c 3.23135,4.188808 4.3086,11.848328 4.3086,21.662109 v 40.45117 c 0,9.81378 -1.07725,17.4733 -4.3086,21.66211 H 633.375 c 16.75521,0 27.88672,-11.24857 27.88672,-41.88672 0,-30.63814 -11.13151,-41.888669 -27.88672,-41.888669 z m 19.62891,9.814453 h 1.19531 c 3.82976,0 6.46369,2.631375 8.01953,5.982422 2.39361,4.547848 4.06836,12.567929 4.06836,26.091794 0,13.52387 -1.67475,21.542 -4.06836,26.08985 -1.55584,3.35104 -4.18977,5.98437 -8.01953,5.98437 h -1.19531 z M 7.4472656,87.292969 A 58.300807,58.300807 0 0 0 2,108.93945 h 21.855469 c 0.25251,-7.64327 1.244683,-14.928677 2.865234,-21.646481 z m 26.0000004,0 C 31.72909,93.901435 30.648345,101.21418 30.371094,108.93945 H 57.226562 V 87.292969 Z m 30.289062,0 v 21.646481 h 28.0625 C 91.522885,101.21417 90.440173,93.900135 88.720703,87.292969 Z m 31.701172,0 c 1.61794,6.720408 2.608807,14.004511 2.861328,21.646481 h 20.664062 a 58.300807,58.300807 0 0 0 -5.44727,-21.646481 z m 226.80078,0.248047 c -6.58241,0 -10.173,6.22402 -12.08789,13.285154 V 89.216797 h -17.95117 c 3.23137,4.188809 3.4707,11.848333 3.4707,21.662113 v 22.25976 c 0,9.81378 -0.23933,17.4733 -3.4707,21.66211 h 21.42187 c -3.23136,-4.18881 -3.4707,-11.84833 -3.4707,-21.66211 v -11.48828 c 0,-12.0877 2.51458,-20.34529 8.37891,-21.30273 7.06113,-1.077124 11.25,6.34179 11.25,6.34179 l -0.83789,-16.753903 c 0,0 -2.99304,-2.394531 -6.70313,-2.394531 z m -56.25,0.11914 c -12.80579,0 -23.33594,10.174198 -23.33594,34.349614 0,24.29509 10.53015,34.46679 23.33594,34.46679 12.80578,0 23.33789,-10.1717 23.33789,-34.46679 0,-24.175416 -10.53211,-34.349614 -23.33789,-34.349614 z m 214.0332,0 c -13.04515,0 -22.38086,8.977268 -22.38086,33.511724 0,24.65413 10.77062,35.30468 25.25196,35.30468 8.976,0 13.4043,-3.4707 13.4043,-3.4707 l 1.3164,-16.15625 c 0,0 -5.02488,10.65234 -14.24023,10.65234 -5.98402,0 -9.33606,-5.02778 -10.17383,-18.79101 h 26.08984 v -3.58985 c 0,-31.23654 -8.37668,-37.460934 -19.26758,-37.460934 z m 47.1543,0 c -10.05316,0 -16.75586,4.429688 -16.75586,4.429688 l -1.3164,15.199216 c 0,0 6.22334,-10.652341 16.0371,-10.652341 3.8298,0 6.22266,2.154734 6.22266,6.822261 v 3.83008 c -17.47328,0.5984 -28.0039,10.53221 -28.0039,27.64649 0,15.07971 8.01798,21.54101 16.15624,21.54101 5.14625,0 9.09503,-2.75159 11.84766,-5.86328 v 4.1875 h 17.95313 c -3.11169,-4.18881 -3.47071,-11.84833 -3.47071,-21.66211 v -21.78125 c 0,-13.882906 -2.87214,-23.697264 -18.66992,-23.697264 z m 161.9707,0 c -10.05316,0 -16.75585,4.429688 -16.75586,4.429688 l -1.3164,15.199216 c 0,0 6.2233,-10.652341 16.03711,-10.652341 3.82976,0 6.22461,2.154734 6.22461,6.822261 v 3.83008 c -17.47333,0.5984 -28.00586,10.53221 -28.00586,27.64649 0,15.07971 8.01798,21.54101 16.15625,21.54101 5.14624,0 9.09694,-2.75159 11.84961,-5.86328 v 4.1875 h 17.95117 c -3.11169,-4.18881 -3.4707,-11.84833 -3.4707,-21.66211 v -21.78125 c 0,-13.882906 -2.87214,-23.697264 -18.66993,-23.697264 z m 82.81836,0 c -10.05316,0 -16.75586,4.429688 -16.75586,4.429688 l -1.3164,15.199216 c 0,0 6.22334,-10.652341 16.03711,-10.652341 3.82979,0 6.22461,2.154734 6.22461,6.822261 v 3.83008 c -17.47333,0.5984 -28.00586,10.53221 -28.00586,27.64649 0,15.07971 8.01798,21.54101 16.15625,21.54101 5.14624,0 9.09694,-2.75159 11.84961,-5.86328 v 4.1875 h 17.95117 c -3.11172,-4.18881 -3.4707,-11.84833 -3.4707,-21.66211 v -21.78125 c 0,-13.882906 -2.87214,-23.697264 -18.66993,-23.697264 z m -392.63867,7.660156 c 4.42817,0 6.10352,7.061068 6.10352,10.412108 v 32.4336 c 0,3.35105 -1.67535,10.4121 -6.10352,10.4121 -4.66752,0 -7.41992,-9.3344 -7.41992,-26.56835 0,-17.35364 2.7524,-26.689457 7.41992,-26.689458 z m 194.4043,0 c 4.42817,0 6.10351,7.061068 6.10351,10.412108 v 32.4336 c 0,3.35105 -1.67534,10.4121 -6.10351,10.4121 -4.66753,0 -7.41992,-9.3344 -7.41992,-26.56835 0,-17.35364 2.75239,-26.689457 7.41992,-26.689458 z m -307.74219,1.316407 c 3.59041,0 8.01953,2.274755 8.01953,25.373051 0,23.21796 -4.42912,25.49218 -8.01953,25.49218 -3.59041,0 -8.01758,-2.27422 -8.01758,-25.49218 0,-23.098296 4.42717,-25.373051 8.01758,-25.373051 z m 212.95508,0 c 4.54783,0 5.38616,10.172391 5.50586,13.523441 0.11981,2.75264 0.23956,5.74465 0.35937,9.0957 h -11.84765 c 0.11981,-4.06913 0.23904,-7.65892 0.47851,-10.53125 0.23925,-3.35105 0.95604,-12.087891 5.50391,-12.087891 z m 52.41992,16.994141 v 19.74805 c 0,5.98401 -1.67546,15.08007 -6.9414,15.08007 -2.99199,0 -5.74415,-3.35107 -5.74415,-14.7207 0,-13.76323 4.66698,-19.50902 12.68555,-20.10742 z m 161.97266,0 v 19.74805 c 0,5.98401 -1.67547,15.08007 -6.94141,15.08007 -2.99199,0 -5.74609,-3.35107 -5.74609,-14.7207 0,-13.76323 4.66889,-19.50902 12.6875,-20.10742 z m 82.81836,0 v 19.74805 c 0,5.98401 -1.67547,15.08007 -6.94141,15.08007 -2.99199,0 -5.74414,-3.35107 -5.74414,-14.7207 0,-13.76323 4.66694,-19.50902 12.68555,-20.10742 z M 2,115.44727 a 58.300807,58.300807 0 0 0 5.4453125,21.64648 H 26.414062 c -1.528133,-6.73733 -2.42779,-14.02404 -2.595703,-21.64648 z m 28.326172,0 c 0.182211,7.69924 1.172418,15.00808 2.792969,21.64648 h 24.107421 v -21.64648 z m 33.408203,0 v 21.64648 h 25.310547 c 1.620555,-6.6384 2.611388,-13.94724 2.794922,-21.64648 z m 34.591797,0 c -0.167925,7.62115 -1.059762,14.90785 -2.583984,21.64648 h 17.773432 a 58.300807,58.300807 0 0 0 5.44532,-21.64648 z m -87.292969,28.15625 c 6.879208,10.81949 17.198968,19.2264 29.441406,23.66601 -2.323445,-2.66837 -4.446591,-5.73617 -6.318359,-9.13476 -2.382015,-4.32799 -4.410047,-9.21532 -6.025391,-14.53125 z m 23.939453,0 c 1.382229,4.1854 3.028225,8.01657 4.886719,11.39257 4.555763,8.27197 10.197311,13.63478 16.171875,15.58594 0.398306,0.0299 0.794403,0.069 1.195312,0.0898 v -27.06836 z m 28.761719,0 v 27.07031 a 59.198943,59.198943 0 0 0 2.769531,-0.21094 c 5.837892,-2.05009 11.340032,-7.36404 15.800782,-15.4668 1.860052,-3.37647 3.505668,-7.20778 4.886718,-11.39257 z m 30.296875,0 c -1.612655,5.31654 -3.640385,10.20375 -6.023438,14.53125 -1.70646,3.10052 -3.621131,5.93052 -5.708984,8.42968 a 58.65225,58.65225 0 0 0 27.630862,-22.96093 z"
       transform="scale(0.26458334)" />
  </g>
</svg>
