<?xml version="1.0" encoding="UTF-8" standalone="no"?>
<svg
   xmlns:dc="http://purl.org/dc/elements/1.1/"
   xmlns:cc="http://creativecommons.org/ns#"
   xmlns:rdf="http://www.w3.org/1999/02/22-rdf-syntax-ns#"
   xmlns:svg="http://www.w3.org/2000/svg"
   xmlns="http://www.w3.org/2000/svg"
   xmlns:sodipodi="http://sodipodi.sourceforge.net/DTD/sodipodi-0.dtd"
   xmlns:inkscape="http://www.inkscape.org/namespaces/inkscape"
   width="733.17773"
   height="100.94141"
   viewBox="0 0 193.9866 26.707415"
   version="1.1"
   id="svg847"
   inkscape:version="1.0.2-2 (e86c870879, 2021-01-15)"
   sodipodi:docname="logo2.svg">
  <defs
     id="defs841" />
  <sodipodi:namedview
     id="base"
     pagecolor="#ffffff"
     bordercolor="#666666"
     borderopacity="1.0"
     inkscape:pageopacity="0.0"
     inkscape:pageshadow="2"
     inkscape:zoom="1"
     inkscape:cx="410.61922"
     inkscape:cy="212.63388"
     inkscape:document-units="px"
     inkscape:current-layer="layer1"
     inkscape:document-rotation="0"
     showgrid="false"
     units="px"
     inkscape:window-width="1920"
     inkscape:window-height="1017"
     inkscape:window-x="-8"
     inkscape:window-y="-8"
     inkscape:window-maximized="1" />
  <metadata
     id="metadata844">
    <rdf:RDF>
      <cc:Work
         rdf:about="">
        <dc:format>image/svg+xml</dc:format>
        <dc:type
           rdf:resource="http://purl.org/dc/dcmitype/StillImage" />
        <dc:title></dc:title>
      </cc:Work>
    </rdf:RDF>
  </metadata>
  <g
     inkscape:label="Layer 1"
     inkscape:groupmode="layer"
     id="layer1"
     transform="translate(-9.2552493,-7.9426678)">
    <path
       id="path2566"
       style="font-weight:bold;font-size:37.0417px;line-height:1.25;font-family:Lemands;-inkscape-font-specification:'Lemands, Bold';stroke-width:0.999999;fill:#ffffff"
       d="m 683.73828,30.019531 c 0,14.560012 -6.8615,22.399997 -16.52148,24.5 l -0.97852,6.861328 h 9.37891 v 45.359371 c 0,17.64002 8.12108,23.24024 22.12109,23.24024 6.29998,0 13.29883,-1.96094 13.29883,-1.96094 l 1.40039,-17.7793 c 0,0 -4.47897,9.24024 -12.45898,9.24024 -4.75998,0 -7.41993,-3.36117 -7.41993,-11.20117 V 61.519531 c 8.12002,0 13.01812,0.839921 17.07813,3.919922 V 51.300781 h -17.07813 v -21.28125 z m -391.43945,0.839844 c 3.64,4.900004 3.91992,13.29999 3.91992,24.5 v 0.560547 c -3.22,-3.220003 -7.42023,-5.740234 -12.74023,-5.740234 -11.90001,0 -21,10.780912 -21,40.460937 0,29.540025 9.09999,40.320315 21,40.320315 5.32,0 9.52023,-2.52023 12.74023,-5.74024 V 129 h 21 c -3.64001,-4.9 -3.91992,-13.85984 -3.91992,-25.33984 V 30.859375 Z m 224.34961,0 c 3.64002,4.900004 3.91992,13.29999 3.91992,24.5 v 0.560547 c -3.22001,-3.220003 -7.42025,-5.740234 -12.74024,-5.740234 -11.90003,0 -21,10.780912 -21,40.460937 0,29.540025 9.09997,40.320315 21,40.320315 5.31999,0 9.52023,-2.52023 12.74024,-5.74024 V 129 h 21 c -3.63999,-4.9 -3.91992,-13.85984 -3.91992,-25.33984 V 30.859375 Z M 34.980469,31 c 4.480005,4.900004 6.160467,13.859835 7.980469,25.339844 L 53.740234,129 H 78.660156 L 85.099609,70.060547 92.660156,129 h 24.779294 l 9.52149,-72.660156 c 1.4,-11.480009 2.93929,-20.43984 7.27929,-25.339844 h -20.43945 c 2.66001,4.060003 2.51969,11.200148 1.67969,20.160156 L 108.33984,113.59961 99.660156,56.339844 C 97.840155,44.859835 96.860785,35.900004 99.800781,31 H 75.439453 c 1.820001,5.320004 2.239689,10.919526 1.679688,16.519531 L 69.560547,113.59961 60.880859,56.339844 C 59.200859,44.859835 58.079535,35.900004 61.019531,31 Z m 199.078121,0 c 3.78001,4.900004 4.06055,13.859835 4.06055,25.339844 v 47.320316 c 0,11.48 -0.28053,20.43984 -4.06055,25.33984 h 25.06055 c -3.78,-4.9 -4.06055,-13.85984 -4.06055,-25.33984 V 31 Z m 97.3711,0 c 3.78,4.900004 5.03906,13.859835 5.03906,25.339844 v 47.320316 c 0,11.48 -1.25906,20.43984 -5.03906,25.33984 h 22.95898 v -0.14062 h 24.5 l 0.98047,-15.39844 c -3.78,2.94 -10.6396,3.91992 -19.59961,3.91992 h -5.88086 V 56.339844 c 0,-11.480009 1.26101,-20.43984 5.04102,-25.339844 z m 224.34765,0 c 3.77998,4.900004 5.04102,13.859835 5.04102,25.339844 v 47.320316 c 0,11.48 -1.26104,20.43984 -5.04102,25.33984 h 24.36133 c 19.60003,0 32.61914,-13.15997 32.61914,-49 0,-35.840031 -13.01911,-49 -32.61914,-49 z m 22.96094,11.480469 h 1.40039 c 4.48003,0 7.55888,3.079995 9.37891,7 2.79999,5.320002 4.75976,14.699517 4.75976,30.519531 0,15.820014 -1.95977,25.19953 -4.75976,30.51953 -1.82003,3.92001 -4.89888,7 -9.37891,7 h -1.40039 z m -356.43945,7.839843 c -7.70001,0 -11.89867,7.279057 -14.13867,15.539063 V 52.279297 h -21 c 3.78,4.900002 4.05859,13.859835 4.05859,25.339844 v 26.041019 c 0,11.48 -0.27857,20.43984 -4.05859,25.33984 h 25.05859 c -3.78,-4.9 -4.05859,-13.85984 -4.05859,-25.33984 V 90.220703 c 0,-14.140014 2.93882,-23.799919 9.79882,-24.919922 8.26001,-1.26 13.16016,7.419922 13.16016,7.419922 l -0.98047,-19.601562 c 0,0 -3.49984,-2.798829 -7.83984,-2.798829 z M 156.5,50.458984 c -14.98001,0 -27.30078,11.901618 -27.30078,40.181641 0,28.420025 12.32077,40.320315 27.30078,40.320315 14.98001,0 27.30078,-11.90029 27.30078,-40.320315 0,-28.280023 -12.32077,-40.181641 -27.30078,-40.181641 z m 247.30859,0 c -15.26003,0 -26.17968,10.501149 -26.17968,39.201172 0,28.840024 12.59903,41.300784 29.53906,41.300784 10.50002,0 15.68164,-4.06055 15.68164,-4.06055 L 424.38867,108 c 0,0 -5.88015,12.46094 -16.66015,12.46094 -7.00003,0 -10.9204,-5.88046 -11.9004,-21.980471 h 30.52149 v -4.201172 c 0,-36.54003 -9.80102,-43.820313 -22.54102,-43.820313 z m 55.16016,0 c -11.76,0 -19.59961,5.181641 -19.59961,5.181641 l -1.54102,17.779297 c 0,0 7.27976,-12.460938 18.75977,-12.460938 4.47999,0 7.28125,2.520462 7.28125,7.980469 v 4.480469 c -20.43999,0.699999 -32.75976,12.319826 -32.75976,32.339848 0,17.64001 9.37841,25.20117 18.89843,25.20117 6.02,0 10.64136,-3.22133 13.86133,-6.86133 V 129 h 21 c -3.64002,-4.9 -4.06055,-13.85984 -4.06055,-25.33984 V 78.179688 c 0,-16.240014 -3.3598,-27.720704 -21.83984,-27.720704 z m 186.41016,0 c -11.76004,0 -19.60157,5.181641 -19.60157,5.181641 l -1.53906,17.779297 c 0,0 7.27975,-12.460938 18.75977,-12.460938 4.47998,0 7.27929,2.520462 7.27929,7.980469 v 4.480469 c -20.44002,0.699999 -32.75976,12.319826 -32.75976,32.339848 0,17.64001 9.38036,25.20117 18.90039,25.20117 6.01999,0 10.63937,-3.22133 13.85937,-6.86133 V 129 h 21 c -3.63998,-4.9 -4.05859,-13.85984 -4.05859,-25.33984 V 78.179688 c 0,-16.240014 -3.35984,-27.720704 -21.83984,-27.720704 z m 96.8789,0 c -11.76,0 -19.59961,5.181641 -19.59961,5.181641 l -1.54101,17.779297 c 0,0 7.27975,-12.460938 18.75976,-12.460938 4.48003,0 7.28125,2.520462 7.28125,7.980469 v 4.480469 c -20.44002,0.699999 -32.75976,12.319826 -32.75976,32.339848 0,17.64001 9.37845,25.20117 18.89844,25.20117 6.02003,0 10.64132,-3.22133 13.86132,-6.86133 V 129 h 21 c -3.64002,-4.9 -4.06054,-13.85984 -4.06054,-25.33984 V 78.179688 c 0,-16.240014 -3.35981,-27.720704 -21.83985,-27.720704 z m -453.17773,8.960938 c 5.18,0 7.13867,8.259682 7.13867,12.179687 v 37.939451 c 0,3.92001 -1.95867,12.18164 -7.13867,12.18164 -5.46001,0 -8.68164,-10.92006 -8.68164,-31.080075 0,-20.300016 3.22163,-31.220703 8.68164,-31.220703 z m 224.34765,0 c 5.18004,0 7.14063,8.259682 7.14063,12.179687 v 37.939451 c 0,3.92001 -1.96059,12.18164 -7.14063,12.18164 -5.45998,0 -8.67968,-10.92006 -8.67968,-31.080075 0,-20.300016 3.2197,-31.220703 8.67968,-31.220703 z M 156.5,60.958984 c 4.2,0 9.38086,2.661617 9.38086,29.681641 0,27.160025 -5.18086,29.820315 -9.38086,29.820315 -4.2,0 -9.38086,-2.66029 -9.38086,-29.820315 0,-27.020024 5.18086,-29.681641 9.38086,-29.681641 z m 246.04883,0 c 5.32002,0 6.29946,11.900308 6.43945,15.820313 0.13984,3.220002 0.27997,6.72062 0.41992,10.640625 h -13.85937 c 0.13984,-4.760005 0.28063,-8.960309 0.56055,-12.320313 0.28006,-3.920001 1.11946,-14.140625 6.43945,-14.140625 z m 61.32031,19.88086 v 23.099606 c 0,7.00001 -1.96111,17.64063 -8.12109,17.64063 -3.50003,0 -6.71875,-3.92069 -6.71875,-17.2207 0,-16.100017 5.45985,-22.819534 14.83984,-23.519536 z m 186.4082,0 v 23.099606 c 0,7.00001 -1.95915,17.64063 -8.11914,17.64063 -3.50003,0 -6.7207,-3.92069 -6.7207,-17.2207 0,-16.100017 5.45981,-22.819534 14.83984,-23.519536 z m 96.88086,0 v 23.099606 c 0,7.00001 -1.96107,17.64063 -8.12109,17.64063 -3.49999,0 -6.71875,-3.92069 -6.71875,-17.2207 0,-16.100017 5.45985,-22.819534 14.83984,-23.519536 z"
       transform="scale(0.26458334)" />
  </g>
</svg>
