<?xml version="1.0" encoding="UTF-8" standalone="no"?>
<svg
   xmlns:dc="http://purl.org/dc/elements/1.1/"
   xmlns:cc="http://creativecommons.org/ns#"
   xmlns:rdf="http://www.w3.org/1999/02/22-rdf-syntax-ns#"
   xmlns:svg="http://www.w3.org/2000/svg"
   xmlns="http://www.w3.org/2000/svg"
   xmlns:sodipodi="http://sodipodi.sourceforge.net/DTD/sodipodi-0.dtd"
   xmlns:inkscape="http://www.inkscape.org/namespaces/inkscape"
   width="632"
   height="308.46497"
   viewBox="0 0 167.21666 81.614694"
   version="1.1"
   id="svg847"
   inkscape:version="1.0.2-2 (e86c870879, 2021-01-15)"
   sodipodi:docname="logo9.svg">
  <defs
     id="defs841" />
  <sodipodi:namedview
     id="base"
     pagecolor="#ffffff"
     bordercolor="#666666"
     borderopacity="1.0"
     inkscape:pageopacity="0.0"
     inkscape:pageshadow="2"
     inkscape:zoom="1.4"
     inkscape:cx="245.21265"
     inkscape:cy="146.90313"
     inkscape:document-units="px"
     inkscape:current-layer="layer1"
     inkscape:document-rotation="0"
     showgrid="false"
     units="px"
     inkscape:window-width="1920"
     inkscape:window-height="1017"
     inkscape:window-x="-8"
     inkscape:window-y="-8"
     inkscape:window-maximized="1"
     inkscape:snap-page="true" />
  <metadata
     id="metadata844">
    <rdf:RDF>
      <cc:Work
         rdf:about="">
        <dc:format>image/svg+xml</dc:format>
        <dc:type
           rdf:resource="http://purl.org/dc/dcmitype/StillImage" />
        <dc:title></dc:title>
      </cc:Work>
    </rdf:RDF>
  </metadata>
  <g
     inkscape:label="Layer 1"
     inkscape:groupmode="layer"
     id="layer1"
     transform="translate(-22.225001,-0.53223209)">
    <path
       id="path6192"
       style="font-weight:bold;font-size:31.6654px;line-height:1.25;font-family:Lemands;-inkscape-font-specification:'Lemands, Bold';stroke-width:0.997334;fill:#ffffff"
       d="m 436.96094,2.0117188 a 5.2033621,5.2033621 0 0 0 -0.24219,0.00391 5.2033621,5.2033621 0 0 0 -2.42187,9.6855472 c 21.37194,12.956372 33.62066,36.230983 32.00585,60.61914 -1.61476,24.386427 -16.84436,45.956104 -39.76171,56.126954 -22.91732,10.17257 -49.7372,7.21147 -69.72852,-7.67188 a 5.2033917,5.2033917 0 1 0 -6.2168,8.3457 78.529144,78.529144 0 0 0 14.45899,8.52735 c -11.72491,3.26077 -19.23633,8.52295 -19.23633,15.50586 0,12.31462 21.47387,22.29882 52.0332,22.29882 30.55937,0 52.03516,-9.9842 52.03516,-22.29882 0,-6.88578 -7.29476,-12.10729 -18.74219,-15.375 26.13649,-11.76654 43.6765,-36.61978 45.54102,-64.773437 1.87321,-28.292416 -12.39632,-55.293976 -36.9961,-70.205078 a 5.2033621,5.2033621 0 0 0 -2.72851,-0.7890624 z m -37.43946,5.2929687 a 60.705894,60.705894 0 0 0 -52.36328,30.0527345 60.705894,60.705894 0 0 0 21.74219,83.052738 60.705894,60.705894 0 0 0 83.05273,-21.746098 60.705894,60.705894 0 0 0 -21.74218,-83.050781 60.705894,60.705894 0 0 0 -0.0566,-0.0332 60.705894,60.705894 0 0 0 -30.63282,-8.2753905 z m 0.15821,6.0644535 a 54.666523,54.666523 0 0 1 11.40234,1.228515 c -3.87651,1.040672 -7.82228,2.766098 -11.69531,5.078125 -3.63024,2.168068 -7.23946,4.859341 -10.75,8.003907 l -14.10156,-8.248047 a 54.666523,54.666523 0 0 1 25.14453,-6.0625 z m 19.58593,6.1875 c 1.66145,0.02192 3.23969,0.250632 4.71876,0.685547 h 0.002 L 411.72852,41.189453 394.17578,30.921875 c 2.76646,-2.353654 5.56102,-4.385472 8.32227,-6.033203 6.05021,-3.611133 11.78324,-5.397805 16.76757,-5.332031 z m -50.67968,3.425781 v 0.002 l 15.51953,9.078125 c -4.46967,4.646603 -8.7022,10.042223 -12.50586,16.078125 L 354.00586,37.845703 a 54.382072,54.382072 0 0 1 14.58008,-14.863281 z m 60.75976,0.117187 c 4.97095,4.169628 7.58636,11.804671 7.32618,21.78125 -0.0831,3.217414 -0.48223,6.646854 -1.17774,10.212891 L 416.96875,44.255859 Z m 12.27539,10.015625 a 54.69601,54.69601 0 0 1 12.54102,32.900391 l -13.13672,-7.685547 c 1.02508,-4.599772 1.60753,-9.064151 1.7168,-13.291016 0.11112,-4.218194 -0.26069,-8.238113 -1.1211,-11.923828 z m -52.10351,2.113282 19.14648,11.201172 -10.19531,17.429687 -21.62305,-12.650391 c 3.8609,-6.087934 8.17617,-11.469153 12.67188,-15.980468 z m -38.57617,7.857422 17.56445,10.277343 c -3.45503,6.216284 -6.16115,12.505219 -8.10547,18.650391 l -15.27148,-8.933594 a 54.382072,54.382072 0 0 1 5.8125,-19.99414 z m 62.96289,6.410156 20.11523,11.767578 c -1.72751,6.129562 -4.3019,12.528851 -7.71875,18.876953 L 403.70703,66.923828 Z m -40.15821,6.933594 21.65625,12.669921 -10.19531,17.427735 -19.4082,-11.353516 c 1.82291,-6.108744 4.46795,-12.460211 7.94726,-18.74414 z m 65.68164,7.998046 14.55469,8.515625 a 54.382072,54.382072 0 0 1 -5.8125,19.992188 L 431.5332,83.203125 c 3.3978,-6.271786 6.03172,-12.604201 7.89453,-18.775391 z m -94.47851,5.580078 13.76758,8.052735 c -1.20371,5.042056 -1.87425,9.934308 -1.99219,14.541015 -0.0954,3.616339 0.16941,7.086432 0.78516,10.328128 A 54.69601,54.69601 0 0 1 344.94922,70.007812 Z m 55.69336,2.15625 22.62695,13.236329 c -3.77246,6.113949 -8.01378,11.530853 -12.44531,16.113279 L 390.44531,89.591797 Z m -36.41602,9.121094 17.91602,10.482422 -12.75,21.792972 c -0.31219,-0.2064 -0.61293,-0.42512 -0.91992,-0.63672 -3.89212,-4.3847 -5.90864,-11.36193 -5.67969,-20.166018 0.0937,-3.59379 0.5733,-7.453926 1.43359,-11.472656 z m 64.26758,7.171875 16.60938,9.71875 a 54.382072,54.382072 0 0 1 -14.58008,14.863279 l -14.3086,-8.37109 c 4.40206,-4.707308 8.55367,-10.154223 12.2793,-16.210939 z m -41.11328,6.375 18.88476,11.048829 c -3.08212,2.71963 -6.21148,5.02715 -9.29882,6.86914 -7.40958,4.42286 -14.3431,6.11136 -20.00782,5.01172 -0.7805,-0.35732 -1.55802,-0.73931 -2.32812,-1.13477 z m 24.39258,14.269529 v 0.002 l 12.80078,7.48632 a 54.709885,54.709885 0 0 1 -33.0625,5.47266 49.515197,49.515197 0 0 0 8.56836,-4.09766 c 3.95629,-2.36059 7.89142,-5.34234 11.69336,-8.86328 z m -38.82813,31.62891 h 0.002 a 80.693744,80.693744 0 0 0 18.83398,3.80859 v 3.58985 a 6.07129,4.7269327 0 1 0 12.14258,0 v -3.52149 a 80.565391,80.565391 0 0 0 19.31836,-3.78125 c 9.84476,2.16287 16.23633,5.53469 16.23633,9.35742 0,6.56838 -18.63677,11.89258 -41.62696,11.89258 -22.99018,0 -41.62695,-5.3242 -41.62695,-11.89258 0,-3.87476 6.56721,-7.29199 16.7207,-9.45312 z m 270.88672,83.45703 c 0,12.44675 -5.86317,19.14816 -14.12109,20.94336 l -0.83789,5.86523 h 8.01757 v 38.77735 c 0,15.07971 6.94214,19.86523 18.91016,19.86523 5.3856,0 11.36914,-1.67383 11.36914,-1.67383 l 1.19727,-15.20117 c 0,0 -3.83056,7.90039 -10.65235,7.90039 -4.06911,0 -6.34179,-2.87212 -6.34179,-9.57422 v -39.97461 c 6.94144,0 11.12887,0.7186 14.59961,3.35157 V 242.37891 H 651.37305 V 224.1875 Z m -339.85937,0.71875 c 3.11169,4.18881 3.34961,11.36894 3.34961,20.94336 v 0.47851 c -2.75265,-2.75264 -6.34278,-4.90624 -10.89063,-4.90624 -10.17282,0 -17.95117,9.21567 -17.95117,34.58789 0,25.25253 7.77835,34.46679 17.95117,34.46679 4.54785,0 8.13798,-2.1536 10.89063,-4.90625 v 3.23047 h 17.95312 c -3.11168,-4.1888 -3.35156,-11.84833 -3.35156,-21.66211 v -62.23242 z m 194.40429,0 c 3.11169,4.18881 3.35157,11.36894 3.35157,20.94336 v 0.47851 c -2.75267,-2.75264 -6.34471,-4.90624 -10.89258,-4.90624 -10.17279,0 -17.95117,9.21567 -17.95117,34.58789 0,25.25253 7.77838,34.46679 17.95117,34.46679 4.54787,0 8.13991,-2.1536 10.89258,-4.90625 v 3.23047 h 17.95117 c -3.11169,-4.1888 -3.35156,-11.84833 -3.35157,-21.66211 V 224.90625 Z M 84,225.02539 c 3.829769,4.18881 5.266423,11.84833 6.822266,21.66211 l 9.214844,62.11328 h 21.30273 l 5.50586,-50.38476 6.46289,50.38476 h 21.1836 l 8.13867,-62.11328 c 1.1968,-9.81378 2.51257,-17.4733 6.22266,-21.66211 h -17.47266 c 2.27393,3.47073 2.15363,9.57484 1.43555,17.23438 l -6.10352,53.37695 -7.41992,-48.94922 c -1.55584,-9.81378 -2.39416,-17.4733 0.11914,-21.66211 h -20.82422 c 1.55584,4.54785 1.91427,9.33584 1.43555,14.12305 l -6.46289,56.48828 -7.41993,-48.94922 c -1.43616,-9.81378 -2.3922,-17.4733 0.1211,-21.66211 z m 170.18555,0 c 3.23136,4.18881 3.4707,11.84833 3.4707,21.66211 v 40.45117 c 0,9.81378 -0.23933,17.47331 -3.4707,21.66211 h 21.42187 c -3.23136,-4.1888 -3.4707,-11.84833 -3.4707,-21.66211 v -62.11328 z m 85.85547,0 c 3.23136,4.18881 4.30859,11.84833 4.30859,21.66211 v 40.45117 c 0,9.81378 -1.07723,17.47331 -4.30859,21.66211 h 19.62695 v -0.11914 h 20.94336 l 0.83789,-13.16406 c -3.23135,2.51329 -9.09437,3.35156 -16.75391,3.35156 h -5.02734 V 246.6875 c 0,-9.81378 1.07722,-17.4733 4.30859,-21.66211 z m 194.40429,0 c 3.23139,4.18881 4.3086,11.84833 4.3086,21.66211 v 40.45117 c 0,9.81378 -1.07721,17.47331 -4.3086,21.66211 h 20.82422 c 16.75525,0 27.88477,-11.24857 27.88477,-41.88672 0,-30.63814 -11.12952,-41.88867 -27.88477,-41.88867 z m 19.62696,9.81445 h 1.19726 c 3.82976,0 6.46369,2.63333 8.01953,5.98438 2.39362,4.54785 4.06836,12.56597 4.06836,26.08984 0,13.52387 -1.67474,21.542 -4.06836,26.08985 -1.55584,3.35104 -4.18977,5.98437 -8.01953,5.98437 h -1.19726 z m -309.93946,6.70118 c -6.58241,0 -10.173,6.22402 -12.08789,13.28515 V 243.2168 H 214.0918 c 3.23136,4.18881 3.4707,11.84832 3.4707,21.66211 v 22.25976 c 0,9.81378 -0.23933,17.47331 -3.4707,21.66211 h 21.42382 c -3.23136,-4.1888 -3.4707,-11.84833 -3.4707,-21.66211 v -11.48828 c 0,-12.08771 2.51263,-20.34529 8.37696,-21.30273 7.06113,-1.07713 11.24999,6.34179 11.25,6.34179 l -0.8379,-16.7539 c 0,0 -2.99108,-2.39453 -6.70117,-2.39453 z m -56.25,0.11914 c -12.80579,0 -23.33789,10.17419 -23.33789,34.34961 0,24.29509 10.5321,34.46679 23.33789,34.46679 12.80579,0 23.33789,-10.1717 23.33789,-34.46679 0,-24.17542 -10.5321,-34.34961 -23.33789,-34.34961 z m 214.03125,0 c -13.04515,0 -22.3789,8.97726 -22.3789,33.51172 0,24.65413 10.77065,35.30468 25.25195,35.30468 8.976,0 13.4043,-3.4707 13.4043,-3.4707 l 1.3164,-16.15625 c 0,0 -5.02679,10.65234 -14.24219,10.65234 -5.98401,0 -9.3341,-5.02778 -10.17187,-18.79101 h 26.08984 v -3.58985 c 0,-31.23654 -8.37863,-37.46093 -19.26953,-37.46093 z m 47.1543,0 c -10.05313,0 -16.75586,4.42968 -16.75586,4.42968 l -1.31641,15.19922 c 0,0 6.22331,-10.65234 16.03711,-10.65234 3.82976,0 6.22461,2.15474 6.22461,6.82226 v 3.83008 c -17.47332,0.5984 -28.00586,10.53221 -28.00586,27.64649 0,15.07971 8.01802,21.54101 16.15625,21.54101 5.14628,0 9.09694,-2.75159 11.84961,-5.86328 v 4.1875 h 17.95117 c -3.11168,-4.1888 -3.4707,-11.84833 -3.4707,-21.66211 v -21.78125 c 0,-13.88291 -2.87214,-23.69726 -18.66992,-23.69726 z m 161.97266,0 c -10.05313,0 -16.75586,4.42968 -16.75586,4.42968 l -1.31641,15.19922 c 0,0 6.22334,-10.65234 16.03711,-10.65234 3.82976,0 6.22266,2.15474 6.22266,6.82226 v 3.83008 c -17.47333,0.5984 -28.00391,10.53221 -28.00391,27.64649 0,15.07971 8.01798,21.54101 16.15625,21.54101 5.14624,0 9.09503,-2.75159 11.84766,-5.86328 v 4.1875 h 17.95312 c -3.11168,-4.1888 -3.4707,-11.84833 -3.4707,-21.66211 v -21.78125 c 0,-13.88291 -2.8721,-23.69726 -18.66992,-23.69726 z m 82.81836,0 c -10.05317,0 -16.75586,4.42968 -16.75586,4.42968 l -1.31641,15.19922 c 0,0 6.22334,-10.65234 16.03711,-10.65234 3.82979,0 6.22265,2.15474 6.22266,6.82226 v 3.83008 c -17.47333,0.5984 -28.00391,10.53221 -28.00391,27.64649 0,15.07971 8.01798,21.54101 16.15625,21.54101 5.14624,0 9.09499,-2.75159 11.84766,-5.86328 v 4.1875 H 716 c -3.11168,-4.1888 -3.4707,-11.84833 -3.4707,-21.66211 v -21.78125 c 0,-13.88291 -2.87214,-23.69726 -18.66992,-23.69726 z m -392.64063,7.66015 c 4.42817,0 6.10352,7.06106 6.10352,10.41211 v 32.4336 c 0,3.35104 -1.67535,10.4121 -6.10352,10.4121 -4.66753,0 -7.41992,-9.3344 -7.41992,-26.56835 0,-17.35364 2.75239,-26.68946 7.41992,-26.68946 z m 194.4043,0 c 4.42817,0 6.10547,7.06106 6.10547,10.41211 v 32.4336 c 0,3.35104 -1.6773,10.4121 -6.10547,10.4121 -4.66753,0 -7.41993,-9.3344 -7.41993,-26.56835 0,-17.35364 2.7524,-26.68946 7.41993,-26.68946 z m -307.74024,1.31641 c 3.59041,0 8.01758,2.27476 8.01758,25.37305 0,23.21797 -4.42717,25.49218 -8.01758,25.49218 -3.59041,0 -8.01953,-2.27421 -8.01953,-25.49218 0,-23.09829 4.42912,-25.37305 8.01953,-25.37305 z m 212.95508,0 c 4.54787,0 5.38616,10.17239 5.50586,13.52344 0.11981,2.75265 0.23761,5.74465 0.35742,9.0957 h -11.84765 c 0.11981,-4.06913 0.23904,-7.65893 0.47851,-10.53125 0.23925,-3.35105 0.95803,-12.08789 5.50586,-12.08789 z m 52.41992,16.99414 v 19.74805 c 0,5.98401 -1.67546,15.08007 -6.9414,15.08007 -2.99199,0 -5.7461,-3.35107 -5.7461,-14.7207 0,-13.76323 4.66893,-19.50902 12.6875,-20.10742 z m 161.97071,0 v 19.74805 c 0,5.98401 -1.67547,15.08007 -6.94141,15.08007 -2.99203,0 -5.74414,-3.35107 -5.74414,-14.7207 0,-13.76323 4.66698,-19.50902 12.68555,-20.10742 z m 82.81836,0 v 19.74805 c 0,5.98401 -1.67547,15.08007 -6.94141,15.08007 -2.99199,0 -5.74414,-3.35107 -5.74414,-14.7207 0,-13.76323 4.66694,-19.50902 12.68555,-20.10742 z"
       transform="scale(0.26458334)" />
  </g>
</svg>
