<?xml version="1.0" standalone="no"?>
<!DOCTYPE svg PUBLIC "-//W3C//DTD SVG 20010904//EN"
 "http://www.w3.org/TR/2001/REC-SVG-20010904/DTD/svg10.dtd">
<svg version="1.0" xmlns="http://www.w3.org/2000/svg"
 width="200.000000pt" height="200.000000pt" viewBox="0 0 200.000000 200.000000"
 preserveAspectRatio="xMidYMid meet">
<metadata>
Created by potrace 1.14, written by Peter Selinger 2001-2017
</metadata>
<g transform="translate(0.000000,200.000000) scale(0.100000,-0.100000)"
fill="#000000" stroke="none">
<path d="M103 1873 c34 -54 66 -144 87 -248 17 -82 75 -455 191 -1247 l43
-288 232 0 232 0 5 28 c3 15 29 248 58 519 29 271 56 490 59 487 3 -3 34 -236
70 -517 l66 -512 231 -3 232 -2 6 32 c3 18 34 256 70 528 35 272 78 601 95
730 37 281 59 382 104 467 l34 63 -189 0 -188 0 17 -37 c33 -74 23 -261 -46
-868 -35 -302 -66 -558 -70 -568 -10 -25 -184 1136 -190 1263 -4 95 1 140 23
193 7 16 -8 17 -220 17 -211 0 -226 -1 -221 -17 15 -47 26 -133 26 -197 0 -75
-126 -1228 -138 -1259 -9 -24 -183 1132 -189 1258 -4 91 2 149 22 198 7 16 -8
17 -234 17 l-241 0 23 -37z"/>
</g>
</svg>
